<svg xmlns="http://www.w3.org/2000/svg" xml:space="preserve" x="0" y="0" version="1.1" viewBox="0 0 31 24">
    <style>.st0{fill-rule:evenodd;clip-rule:evenodd;fill:#f49e17}</style>
    <path d="M.47 3.92v17.79A2.29 2.29 0 0 0 2.76 24h20.86a2.29 2.29 0 0 0 2.29-2.29V6.21a2.29 2.29 0 0 0-2.29-2.29H.47z" class="st0"/><path d="M5.13 9.84 1.3 21.5c-.41 1.23.51 2.5 1.81 2.5H23.7c1.32 0 2.49-.85 2.9-2.1l3.83-11.66c.41-1.23-.51-2.5-1.81-2.5H8.03c-1.32-.01-2.49.84-2.9 2.1z" style="fill-rule:evenodd;clip-rule:evenodd;fill:#f5be3f"/><path d="M.47 3.92h13.39L10.72.78C10.22.28 9.54 0 8.83 0H2.76A2.29 2.29 0 0 0 .47 2.29v1.63z" class="st0"/>
</svg>
